<svg width="78" height="70" viewBox="0 0 78 70" fill="none" xmlns="http://www.w3.org/2000/svg">
<g clip-path="url(#clip0)">
<path d="M0.22937 34.9244C0.22937 40.7724 5.93985 46.2315 14.9425 49.3088C13.1447 58.3592 14.6205 65.6541 19.5491 68.4964C24.6149 71.4181 32.1622 69.3958 39.3256 63.1338C46.3082 69.1428 53.3652 71.5076 58.2895 68.6571C63.3508 65.7271 64.8899 57.9377 63.0425 48.6045C72.4195 45.5044 77.6646 40.8494 77.6646 34.9244C77.6646 29.2121 71.9438 24.2704 63.0623 21.2129C65.0512 11.4942 63.366 4.37639 58.2332 1.41661C53.2848 -1.43696 46.1457 1.05017 39.0605 7.21626C31.6892 0.671564 24.6207 -1.32648 19.4934 1.64152C14.5495 4.5033 13.1389 11.9309 14.9425 21.1487C6.24359 24.1815 0.22937 29.2352 0.22937 34.9244Z" fill="white"/>
<path d="M61.1814 24.2482C60.4494 23.9971 59.7113 23.7645 58.9676 23.5506C59.0909 23.0495 59.2049 22.5461 59.3097 22.0407C60.9854 13.9061 59.8897 7.35289 56.1481 5.19567C52.5607 3.12672 46.6935 5.28393 40.7679 10.4405C40.184 10.9498 39.613 11.4737 39.0556 12.0118C38.6823 11.654 38.3024 11.3032 37.9161 10.9594C31.7059 5.44524 25.4811 3.12185 21.7434 5.28546C18.1594 7.3602 17.0978 13.5211 18.6065 21.2302C18.7566 21.9937 18.926 22.7532 19.1147 23.508C18.234 23.7582 17.3833 24.0248 16.5695 24.3084C9.28886 26.8467 4.63904 30.8251 4.63904 34.9515C4.63904 39.2135 9.63034 43.4884 17.2141 46.0802C17.829 46.2894 18.4491 46.4833 19.0736 46.6615C18.8707 47.4747 18.6906 48.2935 18.5334 49.1167C17.0951 56.6919 18.2184 62.7068 21.793 64.7687C25.485 66.8976 31.6816 64.7094 37.7156 59.435C38.1925 59.0181 38.6712 58.5758 39.1506 58.1123C39.7543 58.6949 40.3742 59.2605 41.0095 59.8085C46.8542 64.8378 52.6265 66.8687 56.198 64.8013C59.8867 62.666 61.0852 56.2044 59.5288 48.3428C59.4101 47.7423 59.2716 47.129 59.1164 46.5045C59.5516 46.3761 59.9786 46.2434 60.3953 46.1052C68.2791 43.4933 73.4083 39.2705 73.4083 34.9515C73.4083 30.8102 68.6087 26.805 61.1814 24.2482Z" fill="#53C1DE"/>
<path d="M59.4716 43.317C59.0957 43.4415 58.7098 43.5617 58.3166 43.6783C57.4461 40.923 56.2713 37.9931 54.8342 34.9663C56.2059 32.0111 57.335 29.1189 58.1811 26.3813C58.8845 26.5852 59.5674 26.7997 60.2254 27.0265C66.5893 29.2169 70.471 32.4561 70.471 34.9517C70.471 37.6102 66.2786 41.0615 59.4719 43.317H59.4716ZM56.6472 48.9137C57.3353 52.3899 57.4336 55.5329 56.9777 57.9899C56.5681 60.1977 55.7445 61.6695 54.7262 62.259C52.5589 63.5135 47.924 61.8828 42.926 57.5818C42.3529 57.0887 41.7756 56.5622 41.1967 56.0053C43.1345 53.8858 45.071 51.4218 46.961 48.6857C50.2857 48.3908 53.4266 47.9084 56.275 47.2501C56.415 47.8162 56.5398 48.371 56.6472 48.9137ZM28.0842 62.0423C25.9668 62.7901 24.2804 62.8114 23.2612 62.2237C21.0918 60.9728 20.1903 56.1428 21.4202 49.6648C21.5664 48.8992 21.7339 48.1379 21.9223 47.3816C24.7391 48.0046 27.8571 48.4529 31.1897 48.7231C33.0922 51.4005 35.0848 53.8614 37.0929 56.0165C36.6661 56.4294 36.2292 56.8316 35.7826 57.223C33.1144 59.5555 30.4407 61.2099 28.0845 62.0423H28.0842ZM18.1646 43.3006C14.8113 42.1544 12.042 40.6649 10.1438 39.0397C8.43821 37.5788 7.5769 36.1286 7.5769 34.9517C7.5769 32.4478 11.3103 29.2537 17.537 27.0828C18.3185 26.8115 19.1078 26.5632 19.9039 26.3381C20.7646 29.1371 21.8934 32.0637 23.2557 35.0232C21.8758 38.0268 20.7308 41 19.8622 43.832C19.2921 43.6688 18.726 43.4916 18.1646 43.3006ZM21.4899 20.6662C20.1973 14.061 21.0556 9.07849 23.2155 7.82823C25.5164 6.4964 30.6036 8.39553 35.9656 13.1564C36.3083 13.4608 36.6525 13.7794 36.9973 14.1091C34.9996 16.2544 33.0253 18.6968 31.1392 21.3586C27.9049 21.6584 24.8088 22.1399 21.9625 22.7848C21.7872 22.0826 21.6296 21.3761 21.4899 20.6659V20.6662ZM51.1537 27.991C50.4815 26.8297 49.7842 25.6831 49.0626 24.5518C51.2569 24.8288 53.359 25.1971 55.333 25.6478C54.7405 27.5472 54.0018 29.5334 53.132 31.5695C52.4965 30.3636 51.8369 29.1705 51.1537 27.991ZM39.0568 16.2084C40.4118 17.6763 41.7689 19.3155 43.1037 21.0938C40.396 20.9659 37.6837 20.9653 34.9758 21.092C36.3119 19.3301 37.6806 17.6934 39.0568 16.2084ZM26.8823 28.0111C26.2077 29.1812 25.5605 30.367 24.9412 31.5674C24.0856 29.5383 23.3537 27.5433 22.7559 25.6167C24.7181 25.1776 26.8105 24.8187 28.9905 24.5464C28.2608 25.6846 27.5578 26.8398 26.8823 28.0111ZM29.0532 45.5667C26.801 45.3154 24.677 44.9748 22.7155 44.5478C23.3226 42.5872 24.0707 40.5493 24.9445 38.4767C25.5664 39.6779 26.2165 40.8644 26.8942 42.0351C27.5857 43.2293 28.3056 44.4069 29.0532 45.5667ZM39.1381 53.9025C37.7457 52.4 36.357 50.7382 35.0005 48.9508C36.3171 49.0025 37.6596 49.0287 39.0239 49.0287C40.4258 49.0287 41.8115 48.9974 43.1753 48.9365C41.8361 50.7565 40.4839 52.4207 39.1381 53.9025ZM53.16 38.3711C54.0791 40.4662 54.854 42.4931 55.4694 44.4206C53.4753 44.8756 51.3226 45.242 49.0543 45.5141C49.7812 44.3617 50.4851 43.1951 51.1656 42.0147C51.8573 40.8151 52.5223 39.6003 53.16 38.3711ZM48.6206 40.5471C47.5789 42.3568 46.4786 44.1321 45.3215 45.8702C43.2812 46.016 41.1726 46.0911 39.0239 46.0911C36.8841 46.0911 34.8023 46.0245 32.7976 45.8945C31.6105 44.1605 30.4894 42.3821 29.4367 40.5633C28.3889 38.7541 27.4103 36.9058 26.5028 35.0223C27.4079 33.1383 28.3837 31.289 29.4279 29.4783V29.4789C30.4717 27.6679 31.584 25.8971 32.7623 24.1705C34.8075 24.0159 36.9045 23.9349 39.0243 23.9349C41.1535 23.9349 43.2532 24.0165 45.2978 24.1723C46.4641 25.8963 47.5693 27.6609 48.6112 29.4628C49.659 31.2694 50.6477 33.1097 51.5759 34.9806C50.6573 36.8706 49.6717 38.7273 48.6209 40.5471H48.6206ZM54.6811 7.74088C56.9838 9.06905 57.8795 14.4247 56.4326 21.4481C56.3378 21.9056 56.2347 22.3614 56.1234 22.8152C53.2705 22.1569 50.1722 21.6669 46.9285 21.3626C45.0388 18.6718 43.0809 16.2252 41.1154 14.1075C41.6305 13.611 42.1578 13.1273 42.6968 12.657C47.7739 8.23849 52.519 6.49396 54.6811 7.74088Z" fill="white"/>
<path d="M39.0236 28.811C42.4153 28.811 45.1645 31.5605 45.1645 34.9518C45.1645 38.3435 42.4153 41.093 39.0236 41.093C35.6323 41.093 32.8828 38.3435 32.8828 34.9518C32.8828 31.5605 35.6323 28.811 39.0236 28.811Z" fill="#53C1DE"/>
</g>
<defs>
<clipPath id="clip0">
<rect width="77.9163" height="70" fill="white"/>
</clipPath>
</defs>
</svg>
